<svg xmlns="http://www.w3.org/2000/svg" viewBox="0 0 15.55 19.03"><defs><style>.cls-1{fill:#32a4d6;}.cls-2{fill:#1a3d49;}.cls-3{fill:#37b7a7;}</style></defs><g id="Layer_2" data-name="Layer 2"><g id="Layer_1-2" data-name="Layer 1"><path class="cls-1" d="M7.45,0l-6,1.16A1.73,1.73,0,0,0,0,2.89v7a8.18,8.18,0,0,0,3.74,6.87l3.09,2a1.75,1.75,0,0,0,1.89,0l3.1-2a8.19,8.19,0,0,0,3.73-6.87v-7a1.74,1.74,0,0,0-1.4-1.7L8.1,0A1.78,1.78,0,0,0,7.45,0Z"/><path class="cls-2" d="M5.29,15.29A7.08,7.08,0,0,1,2.06,9.36V3.94A.94.94,0,0,1,2.83,3L7.6,2.1A1,1,0,0,1,8,2.1L12.73,3a.94.94,0,0,1,.76.92V9.36a7.05,7.05,0,0,1-3.23,5.93l-2,1.28a.94.94,0,0,1-1,0Z"/><path class="cls-3" d="M7.31,11.39a.75.75,0,0,1-.52-.21L4.33,8.72a.74.74,0,1,1,1-1l1.94,2,2.88-2.88a.73.73,0,0,1,1,1l-3.39,3.4A.75.75,0,0,1,7.31,11.39Z"/></g></g></svg>