<svg xmlns="http://www.w3.org/2000/svg" viewBox="0 0 14.57 17.13"><defs><style>.cls-1{fill:#2bd6bd;}.cls-2{fill:#32a4d6;}.cls-3{fill:#37b7a7;}.cls-4{fill:#fff;}</style></defs><g id="Layer_2" data-name="Layer 2"><g id="Layer_1-2" data-name="Layer 1"><path class="cls-1" d="M14.57,7.47v6.66a3,3,0,0,1-3,3H3a3,3,0,0,1-3-3V3A3,3,0,0,1,3,0H7.09A2.81,2.81,0,0,1,8.33.28a2.87,2.87,0,0,1,.88.6L13.7,5.37a2.67,2.67,0,0,1,.6.86A3,3,0,0,1,14.57,7.47Z"/><path class="cls-2" d="M14.3,6.23h-5a1,1,0,0,1-1-1V.28a2.87,2.87,0,0,1,.88.6L13.7,5.37A2.67,2.67,0,0,1,14.3,6.23Z"/><path class="cls-3" d="M14.57,11.33v2.8a3,3,0,0,1-3,3H3a3,3,0,0,1-3-3v-2.8Z"/><path class="cls-4" d="M11,11.7l0-.07a.78.78,0,0,0,0-.6A.18.18,0,0,1,11,11a1.09,1.09,0,0,0-.13-.17v0L8.78,9A.75.75,0,0,0,7.72,9a.76.76,0,0,0,.07,1.06l.55.49H4.25a.75.75,0,0,0,0,1.5H8.34l-.55.49a.75.75,0,0,0,.5,1.31.72.72,0,0,0,.49-.19l2-1.8a0,0,0,0,0,0,0A1.09,1.09,0,0,0,11,11.7Z"/></g></g></svg>