<svg xmlns="http://www.w3.org/2000/svg" viewBox="0 0 23.87 16.23"><defs><style>.cls-1{fill:#2bd6bd;}.cls-2{fill:#32a4d6;}.cls-3{fill:#fff;}</style></defs><g id="Layer_2" data-name="Layer 2"><g id="Layer_1-2" data-name="Layer 1"><path class="cls-1" d="M23.87,11.08a5.25,5.25,0,0,1-5.25,5.15H5.25A5.25,5.25,0,0,1,0,11.08V11a4.36,4.36,0,0,1,0-.51A5.34,5.34,0,0,1,5.35,5.73a.58.58,0,0,0,.57-.49,6.07,6.07,0,0,1,12,0,.57.57,0,0,0,.57.49,5.34,5.34,0,0,1,5.32,4.74A4.09,4.09,0,0,1,23.87,11.08Z"/><path class="cls-2" d="M23.87,11.08a5.25,5.25,0,0,1-5.25,5.15H5.25A5.25,5.25,0,0,1,0,11.08V11a4.36,4.36,0,0,1,0-.51H23.84A4.09,4.09,0,0,1,23.87,11.08Z"/><path class="cls-3" d="M14.2,6.14a2.27,2.27,0,0,0-4.53,0,2.24,2.24,0,0,0,1.41,2.09v6l1.71-.82v-.86h-.91v-.77h.91V11h-.91v-.77h.91v-2A2.24,2.24,0,0,0,14.2,6.14Zm-2.27,1a1,1,0,1,1,1-1A1,1,0,0,1,11.93,7.17Z"/></g></g></svg>