<svg xmlns="http://www.w3.org/2000/svg" viewBox="0 0 19.39 17.13"><defs><style>.cls-1{fill:#2bd6bd;}.cls-2{fill:#32a4d6;}.cls-3{fill:#37b7a7;}.cls-4{fill:#0988b5;}</style></defs><g id="Layer_2" data-name="Layer 2"><g id="content"><path class="cls-1" d="M19.39,7.47v6.66a3,3,0,0,1-3,3H7.82a3,3,0,0,1-3-3V3a3,3,0,0,1,3-3h4.09a2.81,2.81,0,0,1,1.24.28,2.87,2.87,0,0,1,.88.6l4.49,4.49a2.67,2.67,0,0,1,.6.86A3,3,0,0,1,19.39,7.47Z"/><path class="cls-2" d="M19.12,6.23h-5a1,1,0,0,1-1-1V.28a2.87,2.87,0,0,1,.88.6l4.49,4.49A2.67,2.67,0,0,1,19.12,6.23Z"/><path class="cls-3" d="M19.39,11v3.13a3,3,0,0,1-3,3H7.82a3,3,0,0,1-3-3V11Z"/><path class="cls-4" d="M9.27,9.47a1.12,1.12,0,0,1,0-1.82h0a.88.88,0,0,0,.3-1,4.77,4.77,0,0,0-.68-1.18.89.89,0,0,0-1.06-.28,1.13,1.13,0,0,1-1.58-.91A.83.83,0,0,0,6,3.73a.89.89,0,0,0-.52-.26,4.87,4.87,0,0,0-.66,0,4.92,4.92,0,0,0-.67,0,.87.87,0,0,0-.77.78,1.13,1.13,0,0,1-1.58.91.89.89,0,0,0-1.06.28A5.5,5.5,0,0,0,.06,6.62a.88.88,0,0,0,.3,1h0a1.12,1.12,0,0,1,0,1.82h0a.89.89,0,0,0-.3,1,5.42,5.42,0,0,0,.68,1.17A.88.88,0,0,0,1.8,12a1.14,1.14,0,0,1,1.58.91h0a.87.87,0,0,0,.77.78,4.91,4.91,0,0,0,.67,0,4.89,4.89,0,0,0,.66,0,.87.87,0,0,0,.77-.78h0A1.14,1.14,0,0,1,7.83,12a.87.87,0,0,0,1.06-.28,4.71,4.71,0,0,0,.68-1.17.89.89,0,0,0-.3-1Z"/><circle class="cls-1" cx="4.82" cy="8.56" r="2.17"/></g></g></svg>