<svg xmlns="http://www.w3.org/2000/svg" viewBox="0 0 14.57 17.13"><defs><style>.cls-1{fill:#37b7a7;}.cls-2{fill:#1a3d49;}.cls-3{fill:#32a4d6;}</style></defs><g id="Layer_2" data-name="Layer 2"><g id="content"><path class="cls-1" d="M14.57,7.47v6.66a3,3,0,0,1-3,3H3a3,3,0,0,1-3-3V3A3,3,0,0,1,3,0H7.09A2.81,2.81,0,0,1,8.33.28a2.87,2.87,0,0,1,.88.6L13.7,5.37a2.67,2.67,0,0,1,.6.86A3,3,0,0,1,14.57,7.47Z"/><path class="cls-2" d="M11.07,10.1a1,1,0,0,1,0-1.54h0a.74.74,0,0,0,.26-.88,4.5,4.5,0,0,0-.58-1,.75.75,0,0,0-.9-.24,1,1,0,0,1-1.34-.77.74.74,0,0,0-.22-.45A.72.72,0,0,0,7.85,5a5.09,5.09,0,0,0-.56,0,5.1,5.1,0,0,0-.57,0,.76.76,0,0,0-.66.67,1,1,0,0,1-1.34.77.75.75,0,0,0-.9.24,4.5,4.5,0,0,0-.58,1,.74.74,0,0,0,.26.88h0a1,1,0,0,1,0,1.54h0a.74.74,0,0,0-.26.88,4.74,4.74,0,0,0,.58,1,.76.76,0,0,0,.9.23A1,1,0,0,1,6.06,13h0a.76.76,0,0,0,.66.66,5.1,5.1,0,0,0,.57,0,5.09,5.09,0,0,0,.56,0A.76.76,0,0,0,8.51,13h0a1,1,0,0,1,1.34-.78.76.76,0,0,0,.9-.23,4.74,4.74,0,0,0,.58-1,.74.74,0,0,0-.26-.88Z"/><circle class="cls-3" cx="7.29" cy="9.33" r="1.85"/></g></g></svg>