<svg xmlns="http://www.w3.org/2000/svg" viewBox="0 0 15.92 17.13"><defs><style>.cls-1{fill:#0988b5;}.cls-2{fill:#32a4d6;}.cls-3{fill:#37b7a7;}.cls-4{fill:#1a3d49;}.cls-5{fill:#2bd6bd;}</style></defs><g id="Layer_2" data-name="Layer 2"><g id="content"><path class="cls-1" d="M15.91,10.42v4.46c0,1.24-3.56,2.25-8,2.25S0,16.12,0,14.88V10.3c0,1.24,3.56,2.25,8,2.25S15.7,11.6,15.91,10.42Z"/><path class="cls-2" d="M15.91,2.25V6.83c0,.7-1.11,1.32-2.86,1.74A22.69,22.69,0,0,1,8,9.09a22.56,22.56,0,0,1-5.08-.52C1.12,8.15,0,7.53,0,6.83V2.25C0,3.5,3.56,4.5,8,4.5S15.91,3.5,15.91,2.25Z"/><path class="cls-3" d="M15.92,10.3a.49.49,0,0,1,0,.12c-.21,1.18-3.71,2.13-8,2.13S0,11.54,0,10.3c0-.41.39-.8,1.07-1.13a8.22,8.22,0,0,1,1.8-.6A22.56,22.56,0,0,0,8,9.09a22.82,22.82,0,0,0,5.1-.52,8.22,8.22,0,0,1,1.8.6C15.53,9.5,15.92,9.89,15.92,10.3Z"/><path class="cls-4" d="M14.85,9.17A17.42,17.42,0,0,1,8,10.3,17.27,17.27,0,0,1,1.07,9.17a8.22,8.22,0,0,1,1.8-.6A22.56,22.56,0,0,0,8,9.09a22.82,22.82,0,0,0,5.1-.52A8.22,8.22,0,0,1,14.85,9.17Z"/><ellipse class="cls-5" cx="7.95" cy="2.25" rx="7.95" ry="2.25"/></g></g></svg>