<svg xmlns="http://www.w3.org/2000/svg" viewBox="0 0 18.26 18.26"><defs><style>.cls-1{fill:#32a4d6;}.cls-2{fill:#1a3d49;}.cls-3{fill:#37b7a7;}</style></defs><g id="Layer_2" data-name="Layer 2"><g id="content"><circle class="cls-1" cx="9.13" cy="9.13" r="9.13"/><circle class="cls-2" cx="9.13" cy="9.13" r="6.92"/><path class="cls-3" d="M6.82,6.44a2.11,2.11,0,0,1,.65-1,2.66,2.66,0,0,1,1.25-.64,3.33,3.33,0,0,1,1.65.06,3.36,3.36,0,0,1,1.36.69,2.55,2.55,0,0,1,.75,1.09,2.15,2.15,0,0,1,0,1.23,1.93,1.93,0,0,1-.42.79,2.66,2.66,0,0,1-.64.49l-1.2.63a3.42,3.42,0,0,0-.4.22,1.27,1.27,0,0,0-.24.2l-.14.19c0,.07-.11.19-.2.37a.66.66,0,0,1-.84.4A.7.7,0,0,1,8,10.84a.76.76,0,0,1,0-.62,2.15,2.15,0,0,1,.37-.79,2.17,2.17,0,0,1,.55-.5c.21-.13.49-.28.83-.45s.52-.25.65-.33a1.76,1.76,0,0,0,.37-.29.84.84,0,0,0,.23-.4,1,1,0,0,0-.13-.85A1.27,1.27,0,0,0,10,6.06a1.28,1.28,0,0,0-1,.06,2.49,2.49,0,0,0-.75.79.78.78,0,0,1-.91.44A.7.7,0,0,1,6.91,7,.76.76,0,0,1,6.82,6.44Z"/><path class="cls-3" d="M7.89,13.39A.92.92,0,0,1,7.35,13a.8.8,0,0,1-.08-.7.82.82,0,0,1,.41-.53.89.89,0,0,1,.68-.08.87.87,0,0,1,.53.41.85.85,0,0,1,.08.66.81.81,0,0,1-.43.56A.91.91,0,0,1,7.89,13.39Z"/></g></g></svg>