<svg xmlns="http://www.w3.org/2000/svg" viewBox="0 0 13.54 17.13"><defs><style>.cls-1{fill:#2bd6bd;}.cls-2{fill:#32a4d6;}.cls-3{fill:#fff;}.cls-4{fill:#1a3d49;}</style></defs><g id="Layer_2" data-name="Layer 2"><g id="content"><path class="cls-1" d="M12.54,17.13H1.77A1.77,1.77,0,0,1,0,15.36V1.77L13.54,3.54V16.13A1,1,0,0,1,12.54,17.13Z"/><path class="cls-2" d="M1.77,0H12.54a1,1,0,0,1,1,1V3.54a0,0,0,0,1,0,0H1.77A1.77,1.77,0,0,1,0,1.77v0A1.77,1.77,0,0,1,1.77,0Z"/><rect class="cls-3" x="2.69" y="12.94" width="5.07" height="0.76" rx="0.38"/><rect class="cls-3" x="2.69" y="11.09" width="8.17" height="0.76" rx="0.38"/><polygon class="cls-4" points="4.94 6.73 3.81 5.77 2.69 6.73 2.69 3.54 4.94 3.54 4.94 6.73"/></g></g></svg>