<svg xmlns="http://www.w3.org/2000/svg" viewBox="0 0 19.79 15.62"><defs><style>.cls-1{fill:#0988b5;}.cls-2{fill:#32a4d6;}.cls-3{fill:#2bd6bd;}</style></defs><g id="Layer_2" data-name="Layer 2"><g id="content"><polygon class="cls-1" points="19.79 8.98 0 8.98 3.58 5.08 16.21 5.08 19.79 8.98"/><rect class="cls-2" x="3.58" y="5.08" width="12.63" height="8.97"/><path class="cls-3" d="M13.62,9A3.84,3.84,0,0,1,6.18,9H0v4.55a2.09,2.09,0,0,0,2.08,2.09H17.71a2.09,2.09,0,0,0,2.08-2.09V9Z"/><path class="cls-3" d="M9.36,9.49l.07,0a.57.57,0,0,0,.18.12.76.76,0,0,0,.26.06h.05a.88.88,0,0,0,.27-.06.94.94,0,0,0,.18-.12l.06,0,2.25-2.22a.76.76,0,1,0-1.07-1.08l-.95.94V.76a.76.76,0,0,0-1.52,0V7.13l-1-.94A.76.76,0,0,0,7.11,7.27Z"/></g></g></svg>