<svg xmlns="http://www.w3.org/2000/svg" viewBox="0 0 16.05 17.13"><defs><style>.cls-1{fill:#2bd6bd;}.cls-2{fill:#0988b5;}.cls-3{fill:#fff;}</style></defs><g id="Layer_2" data-name="Layer 2"><g id="content"><path class="cls-1" d="M16.05,7.47v6.66a3,3,0,0,1-3,3H4.48a3,3,0,0,1-3-3V3a3,3,0,0,1,3-3H8.57A2.81,2.81,0,0,1,9.81.28a2.87,2.87,0,0,1,.88.6l4.49,4.49a2.67,2.67,0,0,1,.6.86A3,3,0,0,1,16.05,7.47Z"/><path class="cls-2" d="M10.9,13.18,9.05,11.32a4.92,4.92,0,0,0,.87-2.8A5,5,0,1,0,7.77,12.6l1.85,1.86a.93.93,0,0,0,.64.26.9.9,0,0,0,.64-1.54Z"/><path class="cls-3" d="M1.81,8.52a3.15,3.15,0,1,1,5.38,2.22h0A3.15,3.15,0,0,1,1.81,8.52Z"/></g></g></svg>