<svg xmlns="http://www.w3.org/2000/svg" viewBox="0 0 14.86 19.68"><defs><style>.cls-1{fill:#2bd6bd;}.cls-2{fill:#32a4d6;}</style></defs><g id="Layer_2" data-name="Layer 2"><g id="content"><rect class="cls-1" x="2.32" width="10.22" height="9.45" rx="1"/><path class="cls-2" d="M13.86,12.25H1a1,1,0,0,1-1-1V4.1a1,1,0,0,1,1-1H5.63a1,1,0,0,1,.85.47L7.61,5.35a1,1,0,0,0,.84.46h5.41a1,1,0,0,1,1,1v4.44A1,1,0,0,1,13.86,12.25Z"/><rect class="cls-2" y="16.2" width="4.11" height="3.47" rx="1"/><rect class="cls-2" x="5.37" y="16.2" width="4.11" height="3.47" rx="1"/><rect class="cls-2" x="10.75" y="16.2" width="4.11" height="3.47" rx="1"/><path class="cls-1" d="M12.8,14.05H7.68v-1.8h-.5v1.8H2.06a.25.25,0,0,0-.25.25v1.9h.5V14.55H12.55V16.2h.5V14.3A.25.25,0,0,0,12.8,14.05Z"/></g></g></svg>