<svg xmlns="http://www.w3.org/2000/svg" viewBox="0 0 27.46 20.25"><defs><style>.cls-1{fill:none;stroke:#58777f;stroke-linecap:round;stroke-linejoin:round;stroke-width:2px;}</style></defs><g id="Layer_2" data-name="Layer 2"><g id="Layer_1-2" data-name="Layer 1"><path class="cls-1" d="M18,16.4H21.7a4.75,4.75,0,0,0,4.75-4.9A4.87,4.87,0,0,0,21.5,6.89h-.11A2.79,2.79,0,0,1,18.9,5.28,7.69,7.69,0,0,0,4.49,7.06,4.76,4.76,0,0,0,1,11.85,4.88,4.88,0,0,0,5.92,16.4H9.5"/><circle class="cls-1" cx="13.73" cy="14.69" r="4.56"/><polyline class="cls-1" points="13.73 10.13 13.73 6.03 10.32 6.03"/><line class="cls-1" x1="10.03" y1="12.03" x2="5.38" y2="12.03"/><polyline class="cls-1" points="18.06 13.26 21.81 13.26 21.81 10.75"/></g></g></svg>