<svg xmlns="http://www.w3.org/2000/svg" viewBox="0 0 18.79 15.61"><defs><style>.cls-1{fill:#2bd6bd;}.cls-2{fill:#fff;}.cls-3{fill:#32a4d6;}</style></defs><g id="Layer_2" data-name="Layer 2"><g id="content"><rect class="cls-1" x="2.5" y="2.5" width="13.79" height="10.61" rx="1"/><rect class="cls-2" x="9.55" y="10.11" width="3.51" height="1.07"/><path class="cls-2" d="M6.05,11.07l-.63-.86L7.1,9,5.42,7.73l.63-.86L8.32,8.54a.53.53,0,0,1,0,.86Z"/><path class="cls-3" d="M16.29,3.5V5.36H2.5V3.5a1,1,0,0,1,1-1H15.29A1,1,0,0,1,16.29,3.5Z"/><path class="cls-1" d="M6.62,15.61H.5a.5.5,0,0,1-.5-.5V10.58H1v4H6.62Z"/><path class="cls-1" d="M18.79,5h-1V1H12.18V0h6.11a.5.5,0,0,1,.5.5Z"/><path class="cls-1" d="M18.29,15.61H12.18v-1h5.61v-4h1v4.53A.5.5,0,0,1,18.29,15.61Z"/><path class="cls-1" d="M1,5H0V.5A.5.5,0,0,1,.5,0H6.62V1H1Z"/></g></g></svg>