<svg xmlns="http://www.w3.org/2000/svg" viewBox="0 0 18.88 14.18"><defs><style>.cls-1{fill:#1c9180;}.cls-2{fill:#32a4d6;}</style></defs><g id="Layer_2" data-name="Layer 2"><g id="content"><circle class="cls-1" cx="14.13" cy="6" r="2.59"/><path class="cls-1" d="M14.13,9.39a4.8,4.8,0,0,0-4.75,4.09.63.63,0,0,0,.62.7h8.25a.61.61,0,0,0,.62-.7A4.79,4.79,0,0,0,14.13,9.39Z"/><circle class="cls-2" cx="6.25" cy="3.41" r="3.41"/><path class="cls-2" d="M6.25,7.87A6.31,6.31,0,0,0,0,13.26a.82.82,0,0,0,.81.92H11.69a.82.82,0,0,0,.81-.92A6.31,6.31,0,0,0,6.25,7.87Z"/></g></g></svg>