<svg xmlns="http://www.w3.org/2000/svg" viewBox="0 0 14.63 18.1"><defs><style>.cls-1{fill:#37b7a7;}.cls-2{fill:#32a4d6;}.cls-3{fill:#0988b5;}</style></defs><g id="Layer_2" data-name="Layer 2"><g id="content"><path class="cls-1" d="M12.06,6.44a1.2,1.2,0,0,1,0-1.94h0a.94.94,0,0,0,.32-1.1,6,6,0,0,0-.72-1.26,1,1,0,0,0-1.13-.29,1.21,1.21,0,0,1-1.68-1A1,1,0,0,0,8.58.32.88.88,0,0,0,8,.05a5.36,5.36,0,0,0-.7,0,5.52,5.52,0,0,0-.71.05.94.94,0,0,0-.83.83,1.21,1.21,0,0,1-1.68,1A1,1,0,0,0,3,2.14,6,6,0,0,0,2.25,3.4a.94.94,0,0,0,.32,1.1h0a1.2,1.2,0,0,1,0,1.94h0a.94.94,0,0,0-.32,1.1A6,6,0,0,0,3,8.8a1,1,0,0,0,1.13.29,1.21,1.21,0,0,1,1.68,1h0a.94.94,0,0,0,.83.83,5.52,5.52,0,0,0,.71,0,5.36,5.36,0,0,0,.7,0,.94.94,0,0,0,.83-.83h0a1.21,1.21,0,0,1,1.68-1,1,1,0,0,0,1.13-.29,6,6,0,0,0,.72-1.26.94.94,0,0,0-.32-1.1ZM7.32,7.63A2.16,2.16,0,1,1,9.47,5.47,2.16,2.16,0,0,1,7.32,7.63Z"/><path class="cls-2" d="M14.63,13.79v3.12a.46.46,0,0,1-.46.47h-.05c-.75,0-1.49,0-2.23.11-1,.09-2,.23-3,.41-5.5,1-8-1.81-8.74-3a.66.66,0,0,1,.1-.85l0,0a.67.67,0,0,1,.89,0,7.23,7.23,0,0,0,6.8,1.51.12.12,0,0,0,0-.23,6.87,6.87,0,0,1-3.35-1,.69.69,0,0,1-.31-.58.66.66,0,0,1,.9-.6,6.3,6.3,0,0,0,3.72.22,12.27,12.27,0,0,1,3-.27,12.88,12.88,0,0,1,2.38.28A.47.47,0,0,1,14.63,13.79Z"/><path class="cls-3" d="M14.63,13.79v3.12a.46.46,0,0,1-.46.47h-.05c-.75,0-1.49,0-2.23.11V13.05a12.88,12.88,0,0,1,2.38.28A.47.47,0,0,1,14.63,13.79Z"/></g></g></svg>