<svg xmlns="http://www.w3.org/2000/svg" viewBox="0 0 11.3 18.26"><defs><style>.cls-1{fill:#2bd6bd;}.cls-2{fill:#32a4d6;}.cls-3{fill:#1a3d49;}</style></defs><g id="Layer_2" data-name="Layer 2"><g id="content"><path class="cls-1" d="M6.57,11.74,5.48,11.1A3.23,3.23,0,0,1,3.6,12.21v1.23a2.51,2.51,0,0,1,1.64,1.27,2.44,2.44,0,0,1-2.17,3.55,2.4,2.4,0,0,1-2.34-2,2.45,2.45,0,0,1,1.85-2.87V12.21A3.2,3.2,0,0,1,.5,10.81,3.06,3.06,0,0,1,0,9,3.21,3.21,0,0,1,2.57,6V4.81A2.53,2.53,0,0,1,.89,3.43,2.39,2.39,0,0,1,.76,1.81,2.39,2.39,0,0,1,3.31,0a2.34,2.34,0,0,1,2.14,1.9A2.44,2.44,0,0,1,3.61,4.83V6a9.87,9.87,0,0,1,1,.43,9,9,0,0,1,.91.68l1-.6a2.46,2.46,0,0,1,.37-2.17A2.36,2.36,0,0,1,8.3,3.41a2.43,2.43,0,0,1,2.13,4.23,2.48,2.48,0,0,1-3.35-.21l-.53.29L6,8a3.62,3.62,0,0,1,0,2.19l1.06.62a2.49,2.49,0,0,1,2.08-.78,2.36,2.36,0,0,1,1.42.69,2.45,2.45,0,0,1,.37,3,2.4,2.4,0,0,1-2.88,1,2.29,2.29,0,0,1-1.36-1.23A2.36,2.36,0,0,1,6.57,11.74Z"/><path class="cls-2" d="M4.68,9.12a1.56,1.56,0,0,0-1.57-1.6A1.61,1.61,0,0,0,1.49,9.09a1.63,1.63,0,0,0,1.59,1.65A1.6,1.6,0,0,0,4.68,9.12Z"/><path class="cls-3" d="M3.08,14.75A1.06,1.06,0,0,0,2,15.85a1.13,1.13,0,0,0,1.12,1.09A1.12,1.12,0,0,0,4.2,15.81,1.07,1.07,0,0,0,3.08,14.75Z"/><path class="cls-3" d="M7.79,5.76A1.1,1.1,0,0,0,8.88,6.88,1.15,1.15,0,0,0,10,5.78,1.14,1.14,0,0,0,8.89,4.67,1.08,1.08,0,0,0,7.79,5.76Z"/><path class="cls-3" d="M3.09,1.33A1.08,1.08,0,0,0,2,2.42,1.11,1.11,0,0,0,3.1,3.52,1.08,1.08,0,0,0,4.2,2.43,1.1,1.1,0,0,0,3.09,1.33Z"/><path class="cls-3" d="M7.79,12.45a1.1,1.1,0,1,0,2.19.06,1.1,1.1,0,1,0-2.19-.06Z"/></g></g></svg>