<svg xmlns="http://www.w3.org/2000/svg" viewBox="0 0 14.63 15.77"><defs><style>.cls-1{fill:#32a4d6;}.cls-2{fill:#0988b5;}.cls-3{fill:#37b7a7;}</style></defs><g id="Layer_2" data-name="Layer 2"><g id="content"><path class="cls-1" d="M14.63,11.46v3.12a.47.47,0,0,1-.46.47h-.05c-.75,0-1.49,0-2.23.11a28.44,28.44,0,0,0-3,.41c-5.5,1-8-1.82-8.74-3a.66.66,0,0,1,.1-.85l0,0a.66.66,0,0,1,.89,0,7.25,7.25,0,0,0,6.8,1.51.12.12,0,0,0,0-.23,7,7,0,0,1-3.35-1,.69.69,0,0,1-.31-.58.64.64,0,0,1,.1-.35.66.66,0,0,1,.8-.26A6.15,6.15,0,0,0,8.87,11a12.76,12.76,0,0,1,3-.26,12.08,12.08,0,0,1,2.38.28A.47.47,0,0,1,14.63,11.46Z"/><path class="cls-2" d="M14.63,11.46v3.12a.47.47,0,0,1-.46.47h-.05c-.75,0-1.49,0-2.23.11V10.72a12.08,12.08,0,0,1,2.38.28A.47.47,0,0,1,14.63,11.46Z"/><path class="cls-3" d="M4.35,5.14A1.55,1.55,0,0,0,3.91,6l-1-1L7.54.31l1,1a1.59,1.59,0,0,1,2.7-.88,1.6,1.6,0,0,1-.88,2.71l1,1L6.78,8.88l-1-1a1.63,1.63,0,0,0,.86-.45A1.6,1.6,0,1,0,4.35,5.14Z"/></g></g></svg>