<svg xmlns="http://www.w3.org/2000/svg" viewBox="0 0 21.65 15.89"><defs><style>.cls-1{fill:#1c9180;}.cls-2{fill:#32a4d6;}.cls-3{fill:#37b7a7;}</style></defs><g id="Layer_2" data-name="Layer 2"><g id="content"><circle class="cls-1" cx="4.07" cy="5.15" r="2.22"/><path class="cls-1" d="M4.07,8.05A4.1,4.1,0,0,0,0,11.56a.52.52,0,0,0,.52.6H7.61a.53.53,0,0,0,.53-.6A4.11,4.11,0,0,0,4.07,8.05Z"/><circle class="cls-1" cx="17.58" cy="5.15" r="2.22"/><path class="cls-1" d="M17.58,8.05a4.11,4.11,0,0,0-4.07,3.51.53.53,0,0,0,.53.6h7.08a.53.53,0,0,0,.53-.6A4.11,4.11,0,0,0,17.58,8.05Z"/><circle class="cls-2" cx="10.83" cy="2.92" r="2.92"/><path class="cls-2" d="M10.83,6.75a5.42,5.42,0,0,0-5.36,4.62.7.7,0,0,0,.7.79h9.32a.69.69,0,0,0,.69-.79A5.41,5.41,0,0,0,10.83,6.75Z"/><rect class="cls-3" x="4.94" y="14.18" width="11.78" height="1.71" rx="0.86"/></g></g></svg>