<svg xmlns="http://www.w3.org/2000/svg" viewBox="0 0 18.68 17.13"><defs><style>.cls-1{fill:#2bd6bd;}.cls-2{fill:#32a4d6;}.cls-3{fill:#1c9180;}</style></defs><g id="Layer_2" data-name="Layer 2"><g id="Layer_1-2" data-name="Layer 1"><path class="cls-1" d="M11.55,9.55a.5.5,0,0,0,.51-.5.51.51,0,0,0-.51-.51H9.8V3.16h1.75a.51.51,0,0,0,0-1H7.13a.51.51,0,1,0,0,1H8.79V15.44A.51.51,0,0,0,9.3,16h2.25a.51.51,0,0,0,.51-.51.5.5,0,0,0-.51-.5H9.8V9.55Z"/><rect class="cls-2" x="11.55" y="0.96" width="7.12" height="3.37" rx="1"/><rect class="cls-3" width="7.12" height="5.3" rx="1"/><rect class="cls-2" x="11.55" y="7.36" width="7.12" height="3.37" rx="1"/><rect class="cls-2" x="11.55" y="13.76" width="7.12" height="3.37" rx="1"/></g></g></svg>