<svg xmlns="http://www.w3.org/2000/svg" viewBox="0 0 21.83 14.15"><defs><style>.cls-1{fill:#37b7a7;}.cls-2{fill:#32a4d6;}</style></defs><g id="Layer_2" data-name="Layer 2"><g id="Layer_1-2" data-name="Layer 1"><path class="cls-1" d="M21.65,3.81,16.7.09A.46.46,0,0,0,16,.47V2.1H8.14a.47.47,0,0,0-.47.46V5.8a.47.47,0,0,0,.47.47H16V7.9a.46.46,0,0,0,.74.37l4.95-3.71A.48.48,0,0,0,21.65,3.81Z"/><path class="cls-2" d="M.19,10.34l4.94,3.71a.47.47,0,0,0,.75-.37V12.05h7.81a.47.47,0,0,0,.47-.47V8.35a.47.47,0,0,0-.47-.47H5.88V6.25a.47.47,0,0,0-.75-.37L.19,9.59A.47.47,0,0,0,.19,10.34Z"/></g></g></svg>