<svg xmlns="http://www.w3.org/2000/svg" viewBox="0 0 16.97 17.13"><defs><style>.cls-1{fill:#32a4d6;}.cls-2{fill:#37b7a7;}.cls-3{fill:#2bd6bd;}.cls-4{fill:#0988b5;}.cls-5{fill:#1b343f;}</style></defs><g id="Layer_2" data-name="Layer 2"><g id="Layer_1-2" data-name="Layer 1"><path class="cls-1" d="M1.15,7.11H15.71a0,0,0,0,1,0,0v8.52a1.5,1.5,0,0,1-1.5,1.5H2.65a1.5,1.5,0,0,1-1.5-1.5V7.11A0,0,0,0,1,1.15,7.11Z"/><path class="cls-2" d="M17,7.11H0L2,.79A1.14,1.14,0,0,1,3.1,0H13.86A1.14,1.14,0,0,1,15,.79Z"/><polygon class="cls-3" points="11.31 7.11 5.66 7.11 6.42 0 10.55 0 11.31 7.11"/><path class="cls-4" d="M2.83,9.94A2.83,2.83,0,0,0,5.66,7.11H0A2.83,2.83,0,0,0,2.83,9.94Z"/><path class="cls-4" d="M14.14,9.94A2.83,2.83,0,0,0,17,7.11H11.31A2.83,2.83,0,0,0,14.14,9.94Z"/><path class="cls-4" d="M8.48,9.94a2.82,2.82,0,0,0,2.83-2.83H5.66A2.82,2.82,0,0,0,8.48,9.94Z"/><path class="cls-5" d="M8.43,11.52h0a2.81,2.81,0,0,1,2.81,2.81v2.81a0,0,0,0,1,0,0H5.62a0,0,0,0,1,0,0V14.32a2.81,2.81,0,0,1,2.81-2.81Z"/></g></g></svg>