<svg xmlns="http://www.w3.org/2000/svg" viewBox="0 0 16.34 18.26"><defs><style>.cls-1{fill:#37b7a7;}.cls-2{fill:#32a4d6;}.cls-3{fill:#1c9180;}.cls-4{fill:#0988b5;}.cls-5{fill:#fff;}</style></defs><g id="Layer_2" data-name="Layer 2"><g id="content"><path class="cls-1" d="M16.34,1V4.06a1,1,0,0,1-1,1H1a1,1,0,0,1-1-1V1A1,1,0,0,1,1,0H15.34A1,1,0,0,1,16.34,1Z"/><path class="cls-2" d="M16.34,7.61v3.05a1,1,0,0,1-1,1H1a1,1,0,0,1-1-1v-3a1,1,0,0,1,1-1H15.34A1,1,0,0,1,16.34,7.61Z"/><path class="cls-1" d="M16.34,14.21v3.05a1,1,0,0,1-1,1H1a1,1,0,0,1-1-1V14.21a1,1,0,0,1,1-1H15.34A1,1,0,0,1,16.34,14.21Z"/><path class="cls-3" d="M6.46,0V5.06H1a1,1,0,0,1-1-1V1A1,1,0,0,1,1,0Z"/><path class="cls-4" d="M1,6.61H6.46v5.05H1a1,1,0,0,1-1-1v-3A1,1,0,0,1,1,6.61Z"/><path class="cls-3" d="M1,13.21H6.46v5.05H1a1,1,0,0,1-1-1V14.21A1,1,0,0,1,1,13.21Z"/><circle class="cls-5" cx="8.67" cy="2.53" r="0.62"/><circle class="cls-5" cx="8.67" cy="9.13" r="0.62"/><circle class="cls-5" cx="8.67" cy="15.74" r="0.62"/><circle class="cls-5" cx="11.13" cy="2.53" r="0.62"/><circle class="cls-5" cx="11.13" cy="9.13" r="0.62"/><circle class="cls-5" cx="11.13" cy="15.74" r="0.62"/><circle class="cls-5" cx="13.6" cy="2.53" r="0.62"/><circle class="cls-5" cx="13.6" cy="9.13" r="0.62"/><circle class="cls-5" cx="13.6" cy="15.74" r="0.62"/></g></g></svg>