<svg xmlns="http://www.w3.org/2000/svg" viewBox="0 0 18.73 19.23"><defs><style>.cls-1{fill:#26a590;}.cls-2{fill:#37b7a7;}.cls-3{fill:#2bd6bd;}.cls-4{fill:#32a4d6;}.cls-5{fill:#0988b5;}</style></defs><g id="Layer_2" data-name="Layer 2"><g id="content"><polygon class="cls-1" points="16.4 7.06 16.4 15.17 9.38 19.23 9.38 11.11 16.4 7.06"/><polygon class="cls-2" points="9.38 11.11 9.38 19.23 2.34 15.17 2.34 7.06 9.38 11.11"/><polygon class="cls-3" points="16.4 7.06 9.38 11.11 2.34 7.06 9.38 2.99 16.4 7.06"/><path class="cls-4" d="M9.72.14l0,0L9.56,0,9.39,0h0L9.18,0,9.07.12,9,.14,7.56,1.58a.5.5,0,0,0,0,.7.49.49,0,0,0,.7,0l.62-.62V5.81a.49.49,0,0,0,.49.5.5.5,0,0,0,.5-.5V1.67l.62.62a.49.49,0,0,0,.34.14.47.47,0,0,0,.35-.15.5.5,0,0,0,0-.7Z"/><path class="cls-5" d="M18.72,16.29a.57.57,0,0,0,0-.13s0,0,0-.06l-.52-2a.49.49,0,1,0-1,.25l.22.84-3.59-2.07a.5.5,0,0,0-.67.18.49.49,0,0,0,.18.68L17,16.07l-.84.23a.49.49,0,0,0-.35.6.5.5,0,0,0,.48.37l.13,0,2-.55.07,0,.06,0a.61.61,0,0,0,.16-.16h0A.28.28,0,0,0,18.72,16.29Z"/><path class="cls-5" d="M4.85,13.14,1.27,15.21l.22-.84a.48.48,0,0,0-.36-.6.49.49,0,0,0-.6.35L0,16.1v.06a.57.57,0,0,0,0,.13.48.48,0,0,0,.06.18h0a.66.66,0,0,0,.17.16l.06,0a.15.15,0,0,0,.07,0l2,.55.13,0A.51.51,0,0,0,3,16.9a.49.49,0,0,0-.35-.6l-.84-.23L5.34,14a.51.51,0,0,0,.19-.68A.51.51,0,0,0,4.85,13.14Z"/></g></g></svg>