<svg xmlns="http://www.w3.org/2000/svg" viewBox="0 0 15.55 19.03"><defs><style>.cls-1{fill:#32a4d6;}.cls-2{fill:#1a3d49;}.cls-3{fill:#37b7a7;}</style></defs><g id="Layer_2" data-name="Layer 2"><g id="content"><path class="cls-1" d="M7.45,0l-6,1.16A1.73,1.73,0,0,0,0,2.89v7a8.18,8.18,0,0,0,3.74,6.87l3.09,2a1.75,1.75,0,0,0,1.89,0l3.1-2a8.19,8.19,0,0,0,3.73-6.87v-7a1.74,1.74,0,0,0-1.4-1.7L8.1,0A1.78,1.78,0,0,0,7.45,0Z"/><path class="cls-2" d="M5.29,15.29A7.08,7.08,0,0,1,2.06,9.36V3.94A.94.94,0,0,1,2.83,3L7.6,2.1A1,1,0,0,1,8,2.1L12.73,3a.94.94,0,0,1,.76.92V9.36a7.05,7.05,0,0,1-3.23,5.93l-2,1.28a.94.94,0,0,1-1,0Z"/><path class="cls-3" d="M9.58,8.1a1.81,1.81,0,1,0-2.4,1.69v2.13a.6.6,0,0,0,.6.6.59.59,0,0,0,.59-.6V9.79A1.78,1.78,0,0,0,9.58,8.1Zm-1.8.61a.61.61,0,0,1-.61-.61.61.61,0,0,1,.61-.61.61.61,0,0,1,.61.61A.62.62,0,0,1,7.78,8.71Z"/></g></g></svg>