<svg xmlns="http://www.w3.org/2000/svg" viewBox="0 0 18.64 17.13"><defs><style>.cls-1{fill:#37b7a7;}.cls-2{fill:#2bd6bd;}.cls-3{fill:#1b343f;}.cls-4{fill:#32a4d6;}</style></defs><g id="Layer_2" data-name="Layer 2"><g id="Layer_1-2" data-name="Layer 1"><path class="cls-1" d="M14.06,14.36a.65.65,0,0,1-.26-.06l-7-2.84a.69.69,0,0,1-.37-.9.68.68,0,0,1,.9-.38l7,2.85a.68.68,0,0,1,.38.9A.71.71,0,0,1,14.06,14.36Z"/><path class="cls-1" d="M6.46,9.16A.7.7,0,0,1,6,9a.68.68,0,0,1-.12-1L9.19,3.86a.69.69,0,0,1,1.09.85L7,8.9A.71.71,0,0,1,6.46,9.16Z"/><path class="cls-2" d="M5.23,15.29a5.23,5.23,0,1,1,5.22-5.23A5.23,5.23,0,0,1,5.23,15.29Z"/><path class="cls-2" d="M11,5.41a2.71,2.71,0,1,1,2.71-2.7A2.7,2.7,0,0,1,11,5.41Z"/><path class="cls-2" d="M15.93,17.13a2.71,2.71,0,1,1,2.71-2.71A2.7,2.7,0,0,1,15.93,17.13Z"/><path class="cls-3" d="M11,1.38A1.33,1.33,0,1,0,12.3,2.71,1.33,1.33,0,0,0,11,1.38Z"/><path class="cls-3" d="M15.93,13.1a1.33,1.33,0,0,0,0,2.65,1.33,1.33,0,1,0,0-2.65Z"/><path class="cls-4" d="M5.23,12.76a2.71,2.71,0,1,1,2.7-2.7A2.7,2.7,0,0,1,5.23,12.76Z"/></g></g></svg>