<svg xmlns="http://www.w3.org/2000/svg" viewBox="0 0 17.5 18.65"><defs><style>.cls-1{fill:#37b7a7;}.cls-2{fill:#1a3d49;}.cls-2,.cls-3{fill-rule:evenodd;}.cls-3{fill:#32a4d6;}</style></defs><g id="Layer_2" data-name="Layer 2"><g id="content"><path class="cls-1" d="M16.83,11a2.06,2.06,0,0,1,0-3.31h0a1.6,1.6,0,0,0,.54-1.88,9,9,0,0,0-1.23-2.13,1.6,1.6,0,0,0-1.93-.51A2,2,0,0,1,11.36,1.5,1.56,1.56,0,0,0,10.9.55,1.6,1.6,0,0,0,10,.08,9.71,9.71,0,0,0,8.75,0,9.58,9.58,0,0,0,7.54.08,1.61,1.61,0,0,0,6.14,1.5,2.06,2.06,0,0,1,3.27,3.15a1.61,1.61,0,0,0-1.93.51A9.35,9.35,0,0,0,.12,5.79,1.58,1.58,0,0,0,.66,7.67h0A2.05,2.05,0,0,1,.66,11h0a1.58,1.58,0,0,0-.54,1.88A9.41,9.41,0,0,0,1.34,15a1.62,1.62,0,0,0,1.93.5,2.06,2.06,0,0,1,2.87,1.66h0a1.59,1.59,0,0,0,1.4,1.41,8,8,0,0,0,1.21.08A8.11,8.11,0,0,0,10,18.57a1.59,1.59,0,0,0,1.4-1.41h0a2.05,2.05,0,0,1,2.86-1.66,1.61,1.61,0,0,0,1.93-.5,9.09,9.09,0,0,0,1.23-2.14A1.6,1.6,0,0,0,16.84,11Z"/><path class="cls-2" d="M13.28,9.33a4.53,4.53,0,0,1-4.53,4.53A4.5,4.5,0,0,1,4.89,11.7a4.45,4.45,0,0,1-.67-2.37,4.53,4.53,0,1,1,9.06,0Z"/><path class="cls-3" d="M10.53,11.26a2.64,2.64,0,0,1-2.82.59L6.37,13.19A4.58,4.58,0,0,1,4.89,11.7l1.34-1.34a2.63,2.63,0,0,1,2.7-3.57.41.41,0,0,1,.23.11.4.4,0,0,1,0,.54L7.87,8.73a.27.27,0,0,0,0,.39L9,10.21a.27.27,0,0,0,.39,0l1.29-1.29a.37.37,0,0,1,.53,0,.38.38,0,0,1,.11.23A2.62,2.62,0,0,1,10.53,11.26Z"/></g></g></svg>