<svg xmlns="http://www.w3.org/2000/svg" viewBox="0 0 20.63 18.09"><defs><style>.cls-1{fill:#32a4d6;}.cls-2{fill:#37b7a7;}</style></defs><g id="Layer_2" data-name="Layer 2"><g id="Layer_1-2" data-name="Layer 1"><path class="cls-1" d="M20.24,6.45a1.21,1.21,0,0,1,0-1.95,1,1,0,0,0,.31-1.14,5.71,5.71,0,0,0-.74-1.26,1,1,0,0,0-1.13-.26h0a1.21,1.21,0,0,1-1.7-1h0A.94.94,0,0,0,16.15,0a5.94,5.94,0,0,0-1.46,0,1,1,0,0,0-.82.85,1.21,1.21,0,0,1-1.68,1h0a.94.94,0,0,0-1.14.31,5,5,0,0,0-.39.59,4.29,4.29,0,0,0-.31.65.93.93,0,0,0,.32,1.13h0A1.17,1.17,0,0,1,11,5h0a2,2,0,0,1,.84-.18,2.08,2.08,0,0,1,1.4.56,2.28,2.28,0,0,1,.27-.9,2.17,2.17,0,1,1,1.09,3.08A2.08,2.08,0,0,1,13.94,10l0,0h0a1.09,1.09,0,0,1,0,.17h0a.93.93,0,0,0,.8.83,5.49,5.49,0,0,0,1.46,0,.94.94,0,0,0,.82-.84,1.21,1.21,0,0,1,1.69-1,1,1,0,0,0,.62,0,1,1,0,0,0,.51-.35,4.81,4.81,0,0,0,.4-.6,6.25,6.25,0,0,0,.31-.64A1,1,0,0,0,20.24,6.45Z"/><path class="cls-2" d="M13.46,12a1.64,1.64,0,0,1,0-2.64h0A1.29,1.29,0,0,0,13.9,7.8a7.44,7.44,0,0,0-1-1.71,1.3,1.3,0,0,0-1.55-.4A1.65,1.65,0,0,1,9.08,4.37a1.24,1.24,0,0,0-.36-.76A1.32,1.32,0,0,0,8,3.23a7.61,7.61,0,0,0-1-.06,7.77,7.77,0,0,0-1,.06A1.29,1.29,0,0,0,4.91,4.37,1.65,1.65,0,0,1,2.62,5.69a1.3,1.3,0,0,0-1.55.4,7.82,7.82,0,0,0-1,1.71A1.29,1.29,0,0,0,.53,9.31h0A1.64,1.64,0,0,1,.53,12h0a1.29,1.29,0,0,0-.44,1.51,7.75,7.75,0,0,0,1,1.7,1.29,1.29,0,0,0,1.55.41,1.64,1.64,0,0,1,2.29,1.32h0A1.28,1.28,0,0,0,6,18a6.24,6.24,0,0,0,1,.07A6.11,6.11,0,0,0,8,18a1.28,1.28,0,0,0,1.12-1.13h0a1.64,1.64,0,0,1,2.29-1.32,1.29,1.29,0,0,0,1.55-.41,7.37,7.37,0,0,0,1-1.7A1.29,1.29,0,0,0,13.46,12ZM7,13.57a2.94,2.94,0,1,1,2.93-2.94A2.94,2.94,0,0,1,7,13.57Z"/></g></g></svg>