<svg xmlns="http://www.w3.org/2000/svg" viewBox="0 0 18.26 18.26"><defs><style>.cls-1{fill:#2bd6bd;}.cls-2{fill:#fff;}.cls-3{fill:#32a4d6;}</style></defs><g id="Layer_2" data-name="Layer 2"><g id="Layer_1-2" data-name="Layer 1"><path class="cls-1" d="M18.26,3V15.26a3,3,0,0,1-3,3H3a3,3,0,0,1-3-3V3A3,3,0,0,1,3,0H15.26A3,3,0,0,1,18.26,3Z"/><rect class="cls-2" x="9.33" y="12.7" width="4.65" height="1.42"/><path class="cls-2" d="M4.7,14l-.84-1.14L6.09,11.2,3.86,9.56,4.7,8.42l3,2.21a.71.71,0,0,1,0,1.14Z"/><path class="cls-3" d="M18.26,3V5.49H0V3A3,3,0,0,1,3,0H15.26A3,3,0,0,1,18.26,3Z"/></g></g></svg>