<svg xmlns="http://www.w3.org/2000/svg" viewBox="0 0 22.71 22.16"><defs><style>.cls-1{fill:#58777f;}</style></defs><g id="Layer_2" data-name="Layer 2"><g id="Layer_1-2" data-name="Layer 1"><path class="cls-1" d="M0,10.63c.06-.41.11-.83.17-1.24A10.91,10.91,0,0,1,2,4.93,11.27,11.27,0,0,1,12.5.06a10.94,10.94,0,0,1,5.62,2.17A11.31,11.31,0,0,1,22.6,12.92a11.26,11.26,0,0,1-4.54,7.61,10.45,10.45,0,0,1-3,1.57c-.5.17-.83-.07-.84-.6V18.56a3.36,3.36,0,0,0-.24-1.44c-.13-.26-.3-.5-.45-.75.41-.08.86-.13,1.3-.25a4.75,4.75,0,0,0,2.89-1.82,5.33,5.33,0,0,0,.85-2.47,6.45,6.45,0,0,0,0-2,4.11,4.11,0,0,0-1-2,.28.28,0,0,1-.06-.32,3.9,3.9,0,0,0-.15-2.75.26.26,0,0,0-.18-.11,1.86,1.86,0,0,0-1.11.22c-.58.27-1.13.58-1.7.86a.51.51,0,0,1-.34,0,10.73,10.73,0,0,0-5.31,0,.54.54,0,0,1-.35-.07A8.44,8.44,0,0,0,6,4.71H6c-.53-.11-.62,0-.78.47a3.89,3.89,0,0,0,0,2.41.3.3,0,0,1,0,.23,4.69,4.69,0,0,0-1,3.75,6.26,6.26,0,0,0,.63,2.32,4,4,0,0,0,2.42,2,17.67,17.67,0,0,0,1.94.46h.07c-.16.3-.34.6-.49.9a1,1,0,0,0-.1.34c0,.24-.13.34-.35.4a2.54,2.54,0,0,1-2.12-.1A2.47,2.47,0,0,1,5.31,17,2.4,2.4,0,0,0,3.9,15.86a2.28,2.28,0,0,0-.74,0c-.15,0-.19.13-.09.26a1.38,1.38,0,0,0,.33.35A3.09,3.09,0,0,1,4.63,18a2.59,2.59,0,0,0,.6,1,2.55,2.55,0,0,0,1.67.61c.53,0,1.07,0,1.64,0v1.07c0,.29,0,.58,0,.87a.59.59,0,0,1-.86.61A11,11,0,0,1,3.3,19.36,11.4,11.4,0,0,1,.62,15.08,11.64,11.64,0,0,1,0,12.22,2.3,2.3,0,0,0,0,12Z"/></g></g></svg>