<svg xmlns="http://www.w3.org/2000/svg" viewBox="0 0 20.16 20.26"><defs><style>.cls-1{fill:none;stroke:#58777f;stroke-linecap:round;stroke-linejoin:round;stroke-width:2px;}</style></defs><g id="Layer_2" data-name="Layer 2"><g id="Layer_1-2" data-name="Layer 1"><path class="cls-1" d="M4,9.4H5.55a0,0,0,0,1,0,0v9.86a0,0,0,0,1,0,0H4a3,3,0,0,1-3-3V12.4A3,3,0,0,1,4,9.4Z"/><path class="cls-1" d="M5.55,9.4l3.33-8a.68.68,0,0,1,.92-.35l.59.27A2.75,2.75,0,0,1,12,3.83V7.3h5.81a1.37,1.37,0,0,1,1.36,1.57l-1.39,9.22a1.38,1.38,0,0,1-1.36,1.17H5.55Z"/></g></g></svg>