<svg xmlns="http://www.w3.org/2000/svg" viewBox="0 0 18.45 20.67"><defs><style>.cls-1{fill:#58777f;}</style></defs><g id="Layer_2" data-name="Layer 2"><g id="Layer_1-2" data-name="Layer 1"><path class="cls-1" d="M18.44,6c-.16-1-1-1.45-1.64-1.85-1.15-.65-2.3-1.32-3.45-2L10.64.59a8.86,8.86,0,0,0-.82-.4L9.46,0,9,0,2.6,3.6l-.38.22-.57.32A2.71,2.71,0,0,0,0,6v8.89A2.6,2.6,0,0,0,1.6,16.59c.18.09.34.19.51.29a7.62,7.62,0,0,0,.69.38l.08,0a5.14,5.14,0,0,0,1.41.49A2.22,2.22,0,0,0,7,16.15a4.3,4.3,0,0,0,.12-1c0-1.26,0-2.51,0-3.77,0-1.42,0-2.84,0-4.26a.76.76,0,0,0-.19-.58.71.71,0,0,0-.56-.16H6c-.3,0-.48,0-.61.15s-.13.31-.12.61v8a.93.93,0,0,1-.33.78,1,1,0,0,1-.86.07,2,2,0,0,1-.38-.16L3,15.38l-1-.59a.35.35,0,0,1-.21-.36c0-2.71,0-5.41,0-8.12A.34.34,0,0,1,2,6L4.61,4.41,9.05,1.86a.48.48,0,0,1,.29,0l4.47,2.57,2.63,1.51a.3.3,0,0,1,.18.32q0,4.11,0,8.21a.3.3,0,0,1-.19.32l-2.6,1.5c-1.49.87-3,1.74-4.49,2.59a.37.37,0,0,1-.29,0c-.31-.16-.62-.35-.92-.53L7.48,18a.77.77,0,0,0-.6-.09,9.06,9.06,0,0,0-.85.39l-.78.37,1.19.71,1.77,1a2,2,0,0,0,1,.3,2.11,2.11,0,0,0,1.06-.3L12.62,19c1.38-.8,2.76-1.61,4.17-2.41.74-.42,1.5-.85,1.65-1.87V6Z"/><path class="cls-1" d="M12.78,12.93a16.07,16.07,0,0,1-2.3.07c-.69,0-1.09-.32-1.19-.81a.85.85,0,0,0-1.09-.77H8.06a.6.6,0,0,0-.48.12.66.66,0,0,0-.17.51A2.45,2.45,0,0,0,8.9,14.31a5,5,0,0,0,2.25.46h1.08A4.26,4.26,0,0,0,14.42,14a2.43,2.43,0,0,0,1-2.26A2,2,0,0,0,13.78,9.9c-.51-.14-1-.24-1.58-.34l-.83-.15a14.88,14.88,0,0,1-1.48-.29.48.48,0,0,1-.39-.36.57.57,0,0,1,.23-.55A1.12,1.12,0,0,1,10.24,8,10,10,0,0,1,12,7.9c.71,0,1.1.28,1.22.73a1,1,0,0,0,1.22.78A.79.79,0,0,0,15,9.19a.76.76,0,0,0,.07-.61A2.58,2.58,0,0,0,13.3,6.44a5.89,5.89,0,0,0-1.13-.25,5.59,5.59,0,0,0-3.24.44A2.3,2.3,0,0,0,7.69,9.15a1.92,1.92,0,0,0,1.57,1.69c.41.11.84.19,1.25.26l.5.09.69.11a11.49,11.49,0,0,1,1.44.3.56.56,0,0,1,.41.43.68.68,0,0,1-.25.65A.93.93,0,0,1,12.78,12.93Z"/></g></g></svg>