<svg xmlns="http://www.w3.org/2000/svg" viewBox="0 0 32.46 15.6"><defs><style>.cls-1{fill:#58777f;}</style></defs><g id="Layer_2" data-name="Layer 2"><g id="Layer_1-2" data-name="Layer 1"><path class="cls-1" d="M16.48,15.6a31.13,31.13,0,0,1-7.93-.92,17.69,17.69,0,0,1-5.71-2.46A7.59,7.59,0,0,1,.75,10.16a4.11,4.11,0,0,1,.23-5A10.34,10.34,0,0,1,5,2.19,23.43,23.43,0,0,1,11.43.36a31.77,31.77,0,0,1,6.75-.3A26.34,26.34,0,0,1,27,2a11.54,11.54,0,0,1,4.2,2.79,4.62,4.62,0,0,1,1.27,2.8,4.48,4.48,0,0,1-1.29,3.32,11.07,11.07,0,0,1-3.78,2.6,23.69,23.69,0,0,1-6.55,1.8A29.93,29.93,0,0,1,16.48,15.6Zm-.21-11c-.06-.11,0-.18,0-.26.2-.78.4-1.56.61-2.33.07-.24,0-.31-.24-.3-.5,0-1,0-1.52,0a.23.23,0,0,0-.27.21q-1,4-2.06,7.91c-.06.22,0,.22.19.22.49,0,1,0,1.49,0,.23,0,.33-.06.39-.3.29-1.06.49-2.15.88-3.19a2.27,2.27,0,0,1,1.88-1.52c.79-.13,1.19.31,1,1.08-.32,1.22-.65,2.43-1,3.65-.06.21,0,.29.2.28.52,0,1,0,1.55,0,.13,0,.23,0,.27-.18.34-1.36.78-2.7,1.06-4.07A1.45,1.45,0,0,0,19.55,4a4,4,0,0,0-2.84.41ZM8.88,4.09H6.94a.27.27,0,0,0-.33.25q-.86,3.95-1.72,7.87c0,.17,0,.22.17.22.43,0,.87,0,1.3,0,.24,0,.32-.09.36-.3l.57-2.6c0-.18.11-.25.31-.25l2.11,0A4.15,4.15,0,0,0,11,9a2.81,2.81,0,0,0,1.89-2.5A2,2,0,0,0,11.34,4.2,15.08,15.08,0,0,0,8.88,4.09Zm15.53,0h-2c-.2,0-.28,0-.32.26-.27,1.27-.56,2.54-.84,3.81s-.59,2.66-.88,4c0,.18,0,.29.2.28.45,0,.89,0,1.34,0,.16,0,.23,0,.26-.22.18-.86.38-1.71.55-2.57.06-.26.15-.37.44-.36.71,0,1.41,0,2.11,0a2.94,2.94,0,0,0,3.06-2.45,2,2,0,0,0-1.92-2.65C25.73,4.06,25,4.12,24.41,4.09Z"/><path class="cls-1" d="M9.3,5.52h.87A.87.87,0,0,1,11,6.81a1.53,1.53,0,0,1-1.35,1,14,14,0,0,1-1.83.08c-.15,0-.19,0-.16-.2.16-.66.3-1.31.44-2,0-.17.11-.21.27-.21h.9Z"/><path class="cls-1" d="M24.82,5.52c.32,0,.64,0,1,0a.83.83,0,0,1,.79,1.19,1.55,1.55,0,0,1-1.44,1.09,16.79,16.79,0,0,1-1.73.07c-.2,0-.23-.08-.19-.25.15-.64.29-1.28.42-1.93,0-.15.11-.2.26-.2h.93Z"/></g></g></svg>