<svg xmlns="http://www.w3.org/2000/svg" viewBox="0 0 20.37 20.34"><defs><style>.cls-1{fill:#58777f;}</style></defs><g id="Layer_2" data-name="Layer 2"><g id="Layer_1-2" data-name="Layer 1"><path class="cls-1" d="M13.84,15.06h-3.5c-.11,0-.15,0-.14.14s0,.32,0,.48,0,.08.08.08H15c.11,0,.14,0,.14.13,0,.76,0,1.52,0,2.28a1.54,1.54,0,0,1-.59,1.15,3.91,3.91,0,0,1-1.65.77,11.06,11.06,0,0,1-2.5.26,10.59,10.59,0,0,1-2.32-.19,4.44,4.44,0,0,1-2-.81,1.93,1.93,0,0,1-.85-1.58c0-1.59,0-3.18,0-4.77a2.31,2.31,0,0,1,1.07-2,3,3,0,0,1,1.5-.48c.62,0,1.24,0,1.86,0h3.36A2.67,2.67,0,0,0,15,9.75a2.69,2.69,0,0,0,.68-1.18,4,4,0,0,0,.15-1.14V5.26c0-.09,0-.13.12-.13.57,0,1.15,0,1.72,0a2.31,2.31,0,0,1,1.7.93,4.72,4.72,0,0,1,.91,2.13,5.63,5.63,0,0,1,.11,1.16c0,.62,0,1.24,0,1.86a5.08,5.08,0,0,1-.44,1.92,3.27,3.27,0,0,1-.76,1.12,2.69,2.69,0,0,1-1.91.79ZM13,17a.89.89,0,1,0,.89.87A.88.88,0,0,0,13,17Z"/><path class="cls-1" d="M6.57,5.29h3.52c.11,0,.14,0,.14-.14a3.68,3.68,0,0,1,0-.47c0-.08,0-.11-.11-.1H5.42c-.11,0-.14,0-.14-.13,0-.73,0-1.47,0-2.2A1.54,1.54,0,0,1,5.85,1,3.84,3.84,0,0,1,7.68.23,11.63,11.63,0,0,1,10.74,0,8.39,8.39,0,0,1,12.8.31a3.72,3.72,0,0,1,1.63.83,2,2,0,0,1,.69,1.5V7.19a3.66,3.66,0,0,1-.12.88,2.31,2.31,0,0,1-1.48,1.57,3.65,3.65,0,0,1-1.31.23H7.51a3.67,3.67,0,0,0-1,.14A2.37,2.37,0,0,0,5,11.25a3.46,3.46,0,0,0-.36,1.47c0,.81,0,1.61,0,2.41,0,.07,0,.08-.08.08-.56,0-1.13,0-1.69,0a2.41,2.41,0,0,1-1.75-.93,4.5,4.5,0,0,1-.86-1.9A10,10,0,0,1,0,10.66,10.47,10.47,0,0,1,.1,8.72a4.67,4.67,0,0,1,1-2.41,2.7,2.7,0,0,1,2.17-1H6.57ZM7.4,3.35a.89.89,0,0,0,.89-.89.89.89,0,1,0-.89.89Z"/></g></g></svg>