<svg xmlns="http://www.w3.org/2000/svg" viewBox="0 0 15.51 17.13"><defs><style>.cls-1{fill:#32a4d6;}.cls-2{fill:#2bd6bd;}.cls-3{fill:#37b7a7;}.cls-4{fill:#289e8d;}.cls-5{fill:#1b343f;}</style></defs><g id="Layer_2" data-name="Layer 2"><g id="Layer_1-2" data-name="Layer 1"><path class="cls-1" d="M15.51,3V14.13a3,3,0,0,1-3,3H3a3,3,0,0,1-3-3V3A3,3,0,0,1,3,0h9.51A3,3,0,0,1,15.51,3Z"/><path class="cls-2" d="M15.51,3V5.71H7.34V0h5.17A3,3,0,0,1,15.51,3Z"/><rect class="cls-3" x="7.34" y="5.71" width="8.17" height="5.71"/><path class="cls-4" d="M15.51,11.42v2.71a3,3,0,0,1-3,3H7.34V11.42Z"/><rect class="cls-5" x="5.8" width="1.54" height="17.13"/></g></g></svg>